<?xml version="1.0" standalone="no"?><!DOCTYPE svg PUBLIC "-//W3C//DTD SVG 1.1//EN" "http://www.w3.org/Graphics/SVG/1.1/DTD/svg11.dtd"><svg t="1581083831200" class="icon" viewBox="0 0 1024 1024" version="1.1" xmlns="http://www.w3.org/2000/svg" p-id="3316" width="128" height="128" xmlns:xlink="http://www.w3.org/1999/xlink"><defs><style type="text/css"></style></defs><path d="M373.05 513.22c0-39.56 13.36-72.44 40.59-99.67 27.23-27.23 60.11-40.58 99.67-40.58s72.44 13.36 99.67 40.58c27.23 27.23 40.58 60.11 40.58 99.67s-13.36 72.95-40.58 100.18c-27.23 27.23-60.11 40.58-99.67 40.58s-72.57-13.23-99.67-40.58c-27.36-27.61-40.59-61.13-40.59-100.18zM189.4 646.63l0.84 2.01c10.98 25.97 7.81 55.73-10 77.59l-62.51 76.75 104.8 104.8 76.77-62.54c21.84-17.79 51.59-21.03 77.53-10.02 0.86 0.37 1.73 0.73 2.6 1.09 25.6 10.66 43.9 33.68 46.84 61.25l10.49 98.59H587.8l10.51-98.81c2.92-27.42 21.04-50.35 46.43-61.1 0.85-0.36 1.71-0.73 2.56-1.09 25.97-11.17 55.87-7.82 77.75 10.08l76.46 62.56 105.83-104.8-62.92-76.82c-17.97-21.94-21.25-51.92-10.04-77.97 0.32-0.75 0.65-1.51 0.97-2.26 10.71-25.26 33.51-43.29 60.78-46.29l99.07-10.89V437.71l-99.11-10.54c-27.22-2.9-50.04-20.77-60.88-45.91-0.31-0.73-0.63-1.45-0.95-2.18-11.37-26.02-7.99-56.09 9.99-78.06l63.09-77.03-105.83-105.83-76.65 63.06c-21.91 18.03-51.99 21.51-78 10.17-0.85-0.37-1.7-0.74-2.55-1.1-25.17-10.81-43.07-33.66-45.96-60.9L587.8 30.31H436.76l-10.49 98.61c-2.92 27.43-21.07 50.35-46.47 61.08-0.81 0.34-1.63 0.69-2.44 1.04-26.08 11.21-56.09 7.98-78.05-10.01l-76.76-62.88-104.8 105.83 62.92 77.26c17.76 21.81 21.16 51.57 10.07 77.43l-0.9 2.1c-10.75 25.39-33.7 43.49-61.12 46.4L29.37 437.7v151.04l98.91 10.83c27.58 3.03 50.46 21.45 61.12 47.06z m-14.64-41.96" fill="#5397FF" p-id="3317"></path></svg>