<?xml version="1.0" standalone="no"?><!DOCTYPE svg PUBLIC "-//W3C//DTD SVG 1.1//EN" "http://www.w3.org/Graphics/SVG/1.1/DTD/svg11.dtd"><svg t="1581394749393" class="icon" viewBox="0 0 1046 1024" version="1.1" xmlns="http://www.w3.org/2000/svg" p-id="10093" xmlns:xlink="http://www.w3.org/1999/xlink" width="130.75" height="128"><defs><style type="text/css"></style></defs><path d="M523.377778 0C237.454222 0 5.688889 229.216711 5.688889 512 5.688889 794.771911 237.4656 1024 523.377778 1024c285.9008 0 517.688889-229.239467 517.688889-512C1041.066667 229.216711 809.278578 0 523.377778 0z" fill="#4DAFEA" p-id="10094"></path><path d="M787.512889 686.717156c-24.826311 2.309689-29.013333-32.802133-45.738667-43.303823-7.054222 34.076444-23.790933 58.413511-47.593244 76.367645 22.232178 16.645689 63.021511 22.027378 60.916622 58.1632-2.343822 43.815822-83.649422 55.6032-142.483911 51.5072-43.144533-3.083378-68.755911-18.454756-93.331911-34.850134-13.585067 4.869689-27.704889 17.419378-42.348089 23.324445-60.142933 24.348444-191.374222 14.597689-196.608-38.1952-3.640889-37.410133 39.480889-44.066133 62.748444-59.710578-24.052622-16.907378-42.0864-39.469511-47.570489-74.820267-17.521778 4.619378-21.435733 42.2912-45.761422 41.517512-25.873067-0.762311-29.7984-53.316267-27.192889-86.357334 3.925333-50.744889 41.585778-90.203022 60.928-116.337778-1.046756-28.706133 1.035378-54.5792 13.585067-69.700266 0.534756-74.057956 26.658133-117.623467 64.318578-154.510222 38.172444-37.421511 96.210489-65.865956 154.248533-66.377956 69.279289-0.762311 123.653689 32.290133 157.650489 64.830578 30.321778 29.218133 50.187378 60.222578 59.335111 106.348089 2.878578 13.835378 1.046756 30.742756 4.972089 48.173511 1.570133 7.168 9.409422 14.870756 11.776 24.860444 3.128889 12.811378-1.570133 28.694756 1.558756 43.303822 2.3552 11.013689 12.811378 19.228444 18.557155 26.646756 16.736711 21.014756 38.968889 55.6032 42.359467 88.155022 4.960711 35.874133-0.534756 88.917333-24.325689 90.965334z" fill="#ffffff" p-id="10095" data-spm-anchor-id="a313x.7781069.0.i20" class="selected"></path></svg>