<?xml version="1.0" standalone="no"?><!DOCTYPE svg PUBLIC "-//W3C//DTD SVG 1.1//EN" "http://www.w3.org/Graphics/SVG/1.1/DTD/svg11.dtd"><svg t="1581394553516" class="icon" viewBox="0 0 1024 1024" version="1.1" xmlns="http://www.w3.org/2000/svg" p-id="4737" xmlns:xlink="http://www.w3.org/1999/xlink" width="128" height="128"><defs><style type="text/css"></style></defs><path d="M512 512m-512 0a512 512 0 1 0 1024 0 512 512 0 1 0-1024 0Z" fill="#FB5555" p-id="4738"></path><path d="M464.213333 727.04c-102.4 3.413333-184.32-44.373333-184.32-112.64 0-68.266667 81.92-119.466667 184.32-126.293333 102.4-3.413333 184.32 37.546667 184.32 102.4 0 71.68-81.92 133.12-184.32 136.533333m215.04-215.04c-23.893333-3.413333-13.653333-17.066667-13.653333-17.066667s23.893333-37.546667-3.413333-64.853333c-34.133333-34.133333-119.466667 3.413333-119.466667 3.413333-30.72 10.24-23.893333-3.413333-17.066667-30.72 0-27.306667-10.24-75.093333-98.986666-47.786666-85.333333 30.72-160.426667 129.706667-160.426667 129.706666-51.2 68.266667-44.373333 119.466667-44.373333 119.466667 13.653333 116.053333 136.533333 146.773333 235.52 153.6 102.4 6.826667 238.933333-34.133333 283.306666-122.88 40.96-81.92-34.133333-119.466667-61.44-122.88" fill="#FFFFFF" p-id="4739"></path><path d="M477.866667 617.813333c-6.826667 3.413333-13.653333 3.413333-17.066667 0-3.413333-6.826667-3.413333-13.653333 3.413333-20.48 6.826667-6.826667 17.066667-3.413333 20.48 0 3.413333 6.826667 0 13.653333-6.826666 20.48m-58.026667 47.786667c-20.48 3.413333-34.133333-10.24-34.133333-23.893333 0-17.066667 13.653333-30.72 34.133333-34.133334 20.48-3.413333 37.546667 10.24 37.546667 27.306667-3.413333 17.066667-20.48 30.72-37.546667 30.72m23.893333-129.706667c-102.4 10.24-88.746667 105.813333-88.746666 105.813334s0 30.72 27.306666 44.373333c58.026667 30.72 122.88 13.653333 153.6-27.306667 30.72-37.546667 10.24-136.533333-92.16-122.88M829.44 460.8v-6.826667c0-10.24 3.413333-17.066667 3.413333-27.306666 0-98.986667-81.92-180.906667-184.32-180.906667-13.653333 0-23.893333 10.24-23.893333 23.893333s10.24 23.893333 23.893333 23.893334c71.68 0 133.12 58.026667 133.12 129.706666 0 6.826667 0 17.066667-3.413333 23.893334v3.413333c0 13.653333 10.24 23.893333 23.893333 23.893333 13.653333 3.413333 23.893333-3.413333 27.306667-13.653333" fill="#FFFFFF" p-id="4740"></path><path d="M750.933333 436.906667v-10.24c0-54.613333-44.373333-98.986667-102.4-98.986667-10.24 0-20.48 10.24-20.48 20.48s10.24 20.48 20.48 20.48c34.133333 0 58.026667 27.306667 58.026667 58.026667V436.906667c0 10.24 10.24 20.48 20.48 20.48 13.653333 0 20.48-6.826667 23.893333-20.48 0 3.413333 0 0 0 0" fill="#FFFFFF" p-id="4741"></path></svg>