<?xml version="1.0" standalone="no"?><!DOCTYPE svg PUBLIC "-//W3C//DTD SVG 1.1//EN" "http://www.w3.org/Graphics/SVG/1.1/DTD/svg11.dtd"><svg t="1581394650393" class="icon" viewBox="0 0 1024 1024" version="1.1" xmlns="http://www.w3.org/2000/svg" p-id="8082" xmlns:xlink="http://www.w3.org/1999/xlink" width="128" height="128"><defs><style type="text/css"></style></defs><path d="M512 512m-512 0a512 512 0 1 0 1024 0 512 512 0 1 0-1024 0Z" fill="#449522" p-id="8083"></path><path d="M635.904 411.1104h3.84C620.2112 322.944 531.1488 256.256 424.2688 256.256 303.104 256.256 204.8 341.888 204.8 447.5904c0 61.44 33.2288 116.1216 84.864 151.0912l-21.7088 66.432 76.4672-39.04-1.4592-0.7424a248.1152 248.1152 0 0 0 100.6592 12.8512 155.6736 155.6736 0 0 1-8.96-51.7632c0-96.7168 90.112-175.3088 201.2672-175.3088zM495.1808 363.264c16.1536 0 29.2096 11.8272 29.2096 26.368 0 11.264-7.8336 20.9152-18.8928 24.6528-3.1744 1.1264-6.656 1.6896-10.3168 1.6896-16.128 0-29.184-11.8016-29.184-26.368 0-14.5152 13.1328-26.3424 29.184-26.3424zM364.6976 414.3872a30.976 30.976 0 0 1-10.3168 1.6896c-16.1536 0-29.184-11.8016-29.184-26.368 0-14.5152 13.0304-26.3424 29.184-26.3424 16.128 0 29.184 11.8272 29.184 26.368 0 11.264-7.8336 20.9152-18.8672 24.6528z" fill="#ffffff" p-id="8084" data-spm-anchor-id="a313x.7781069.0.i9" class="selected"></path><path d="M819.2 602.5472C819.2 510.1824 738.9696 435.2 640 435.2s-179.2 74.88-179.2 167.3472 80.2304 167.3216 179.2 167.3216a190.976 190.976 0 0 0 63.1808-10.6752L760.1664 793.6l-15.36-55.424C789.8624 707.84 819.2 658.3552 819.2 602.5472z m-227.072-30.464a23.424 23.424 0 0 1-8.32 1.4848c-13.0816 0-23.68-10.3168-23.68-22.9632 0-12.6208 10.5984-22.9376 23.68-22.9376 13.056 0 23.68 10.3168 23.68 22.9376 0 9.8304-6.3744 18.176-15.36 21.504z m115.9936 0a23.3984 23.3984 0 0 1-8.2944 1.4848c-13.0816 0-23.68-10.3168-23.68-22.9632 0-12.6208 10.5984-22.9376 23.68-22.9376 13.056 0 23.68 10.3168 23.68 22.9376 0 9.8304-6.3744 18.176-15.36 21.504z" fill="#ffffff" p-id="8085" data-spm-anchor-id="a313x.7781069.0.i8" class="selected"></path></svg>