<?xml version="1.0" standalone="no"?><!DOCTYPE svg PUBLIC "-//W3C//DTD SVG 1.1//EN" "http://www.w3.org/Graphics/SVG/1.1/DTD/svg11.dtd"><svg t="1581411234986" class="icon" viewBox="0 0 1032 1024" version="1.1" xmlns="http://www.w3.org/2000/svg" p-id="9951" xmlns:xlink="http://www.w3.org/1999/xlink" width="129" height="128"><defs><style type="text/css"></style></defs><path d="M207.303111 524.060444a298.439111 298.439111 0 1 0 300.600889-295.822222h-2.161778a297.415111 297.415111 0 0 0-298.439111 295.822222z" fill="#E9EAEB" p-id="9952"></path><path d="M614.4 759.125333a273.066667 273.066667 0 0 0-166.798222-62.919111 396.060444 396.060444 0 0 0-60.529778 63.715556c-31.061333-10.581333-64.853333-44.487111-94.776889-80.782222s-56.888889-76.231111-60.984889-108.771556a391.395556 391.395556 0 0 0 74.183111-47.104 273.066667 273.066667 0 0 0-29.696-176.014222c-32.540444-5.461333-111.388444-3.868444-167.708444 22.755555-22.755556 69.176889-31.061333 225.166222 98.645333 389.233778 135.850667 159.288889 292.408889 159.288889 364.771556 149.276445C608.369778 856.974222 614.4 792.234667 614.4 759.125333z" fill="#FE490D" p-id="9953"></path><path d="M520.760889 927.516444c-88.405333 0-214.584889-27.989333-326.087111-158.037333C71.224889 613.034667 62.805333 453.404444 92.842667 363.861333l2.275555-6.826666 6.599111-2.958223a353.735111 353.735111 0 0 1 177.379556-22.755555l7.395555 1.251555 3.868445 6.712889A291.271111 291.271111 0 0 1 321.991111 526.791111l-1.137778 5.233778-3.982222 3.640889a404.138667 404.138667 0 0 1-65.877333 43.804444c6.826667 22.755556 25.258667 52.906667 54.840889 89.201778s55.409778 59.847111 76.686222 70.997333a403.683556 403.683556 0 0 1 55.637333-56.888889l4.323556-3.299555h5.347555A292.181333 292.181333 0 0 1 625.777778 746.723556l5.802666 5.12v7.509333c-1.251556 44.487111-10.24 107.52-46.193777 157.582222l-4.096 5.802667-7.509334 1.024a417.678222 417.678222 0 0 1-53.020444 3.754666z m-398.222222-546.133333c-10.467556 37.091556-41.187556 190.577778 98.076444 366.705778C342.698667 891.221333 484.465778 900.664889 562.631111 892.017778a258.161778 258.161778 0 0 0 35.612445-125.155556 264.305778 264.305778 0 0 0-144.384-54.272 400.725333 400.725333 0 0 0-52.679112 56.888889l-7.395555 10.24-11.377778-4.096c-29.696-10.24-63.829333-38.343111-102.627555-85.788444s-60.529778-86.357333-64.739556-117.191111l-1.137778-12.401778 11.377778-5.12a394.695111 394.695111 0 0 0 65.649778-40.732445 262.712889 262.712889 0 0 0-24.803556-151.779555 337.351111 337.351111 0 0 0-143.701333 18.773333z" fill="#A70101" p-id="9954"></path><path d="M555.463111 559.445333H422.798222v-39.367111l56.206222-54.499555a309.703111 309.703111 0 0 0 29.354667-30.492445 68.266667 68.266667 0 0 0 10.012445-16.952889 35.271111 35.271111 0 0 0 2.503111-14.449777c0-0.682667 0-16.839111-23.665778-22.755556s-45.511111 9.898667-57.912889 28.216889l-27.648-18.318222c22.755556-34.133333 59.847111-50.631111 93.639111-41.984a58.936889 58.936889 0 0 1 48.810667 54.840889 69.404444 69.404444 0 0 1-5.347556 27.534222 95.914667 95.914667 0 0 1-15.246222 25.031111 307.2 307.2 0 0 1-32.085333 33.450667l-37.319111 36.408888h91.022222z m149.276445 0H671.288889v-49.834666h-99.214222v-45.511111l73.614222-120.376889H705.422222v132.778666h16.611556v33.109334h-17.294222z m-99.441778-82.944H671.288889v-99.555555h-7.395556l-59.164444 96.711111z" fill="#FE490D" p-id="9955"></path><path d="M512 1015.580444a512 512 0 0 1-512-512h33.223111A479.345778 479.345778 0 0 0 512 982.016z m512-512h-33.109333A478.776889 478.776889 0 0 0 600.064 32.654222L606.094222 0A512 512 0 0 1 1024 503.125333zM771.754667 954.368l-16.497778-28.785778A490.040889 490.040889 0 0 0 967.111111 678.456889l30.947556 11.946667a522.695111 522.695111 0 0 1-226.304 263.964444z" fill="#BCC0C4" p-id="9956"></path><path d="M644.096 914.545778l-11.491556-31.288889a389.802667 389.802667 0 1 0-449.194666-596.195556l-26.851556-19.342222a422.912 422.912 0 1 1 487.537778 646.940445z" fill="#FE490D" p-id="9957"></path><path d="M555.463111 609.166222h33.223111v33.109334h-33.223111z m66.332445 0h33.223111v33.109334h-33.223111z m66.332444 0h33.223111v33.109334h-33.223111z" fill="#FE490D" p-id="9958"></path></svg>