<?xml version="1.0" standalone="no"?><!DOCTYPE svg PUBLIC "-//W3C//DTD SVG 1.1//EN" "http://www.w3.org/Graphics/SVG/1.1/DTD/svg11.dtd"><svg t="1581499509877" class="icon" viewBox="0 0 1024 1024" version="1.1" xmlns="http://www.w3.org/2000/svg" p-id="8955" xmlns:xlink="http://www.w3.org/1999/xlink" width="128" height="128"><defs><style type="text/css"></style></defs><path d="M467.968 447.488v21.504c-9.216 15.36-20.48 29.696-32.768 45.056h34.816v18.432c-3.072 20.48-8.192 38.912-12.288 52.224 2.048 1.024 4.096 3.072 7.168 5.12 9.216 8.192 17.408 14.336 25.6 18.432 8.192 3.072 20.48 5.12 35.84 5.12s32.768 1.024 52.224 1.024c20.48 0 48.128-1.024 81.92-2.048l-6.144 25.6h-71.68c-19.456 0-38.912-1.024-57.344-1.024-19.456-1.024-33.792-3.072-44.032-6.144-11.264-4.096-22.528-11.264-32.768-21.504-2.048-2.048-4.096-3.072-6.144-3.072-6.144 0-15.36 12.288-28.672 37.888l-19.456-17.408c13.312-25.6 26.624-39.936 38.912-45.056 5.12-13.312 9.216-27.648 12.288-43.008h-41.984v-20.48c13.312-15.36 25.6-29.696 34.816-44.032h-39.936V449.536h69.632z m-1.024-27.648l-17.408 17.408c-10.24-13.312-25.6-26.624-44.032-41.984l18.432-17.408c17.408 14.336 31.744 28.672 43.008 41.984z m78.848 19.456c1.024-13.312 2.048-27.648 3.072-41.984v-20.48h26.624v14.336c0 17.408-1.024 32.768-3.072 48.128h68.608v26.624H568.32c-1.024 6.144-3.072 13.312-4.096 18.432 24.576 20.48 53.248 51.2 86.016 89.088l-19.456 19.456c-22.528-29.696-48.128-56.32-74.752-82.944-13.312 35.84-34.816 63.488-63.488 82.944l-17.408-22.528c33.792-21.504 55.296-57.344 65.536-105.472h-57.344V439.296h62.464zM823.296 442.368c16.384 75.776 58.368 134.144 122.88 175.104l-18.432 23.552c-55.296-36.864-93.184-86.016-115.712-147.456-18.432 59.392-58.368 108.544-118.784 147.456l-16.384-24.576c77.824-47.104 117.76-111.616 119.808-193.536V377.856h27.648c1.024 25.6 0 47.104-1.024 64.512z" fill="#F8E71C" p-id="8956"></path><path d="M382.976 398.336h-82.944c-3.072 0-5.12 1.024-7.168 3.072-35.84 36.864-71.68 73.728-108.544 110.592l-2.048 2.048v-112.64c0-2.048 0-4.096-3.072-4.096h-79.872c-2.048 0-3.072 0-2.048 3.072v24.576c0 2.048 1.024 3.072 3.072 3.072h21.504c4.096 0 4.096 0 4.096 4.096v229.376h1.024c83.968-87.04 169.984-175.104 256-263.168" fill="#F8E71C" p-id="8957"></path><path d="M956.416 296.96h-888.832c-31.744 0-57.344 25.6-57.344 57.344v315.392c0 31.744 25.6 57.344 57.344 57.344h888.832c31.744 0 57.344-25.6 57.344-57.344v-315.392c0-31.744-25.6-57.344-57.344-57.344z m-472.064 168.96V439.296h61.44c1.024-13.312 2.048-27.648 3.072-41.984v-20.48h26.624v14.336c0 17.408-1.024 32.768-3.072 48.128h68.608v26.624H568.32c-1.024 6.144-3.072 13.312-4.096 18.432 24.576 20.48 53.248 51.2 86.016 89.088l-19.456 19.456c-22.528-29.696-48.128-56.32-74.752-82.944-13.312 35.84-34.816 63.488-63.488 82.944l-17.408-22.528c33.792-21.504 55.296-57.344 65.536-105.472h-56.32z m-60.416-87.04c17.408 13.312 31.744 27.648 44.032 40.96l-17.408 17.408c-10.24-13.312-25.6-26.624-44.032-41.984l17.408-16.384z m-297.984 283.648c-1.024-1.024-1.024-1.024 0 0l-1.024-230.4c0-4.096 0-4.096-4.096-4.096h-21.504c-2.048 0-3.072 0-3.072-3.072v-24.576c0-2.048 0-3.072 2.048-3.072h79.872c3.072 0 3.072 1.024 3.072 4.096v112.64l2.048-2.048c36.864-36.864 72.704-73.728 108.544-110.592 2.048-2.048 4.096-3.072 7.168-3.072h82.944c-84.992 88.064-171.008 176.128-256 264.192z m527.36-26.624h-71.68c-19.456 0-38.912-1.024-57.344-1.024-19.456-1.024-33.792-3.072-44.032-6.144-11.264-4.096-22.528-11.264-32.768-21.504-2.048-2.048-4.096-3.072-6.144-3.072-6.144 0-15.36 12.288-28.672 37.888l-19.456-17.408c13.312-25.6 26.624-39.936 38.912-45.056 5.12-13.312 9.216-27.648 12.288-43.008h-41.984v-20.48c13.312-15.36 25.6-29.696 34.816-44.032h-39.936v-24.576h69.632v21.504c-9.216 15.36-20.48 29.696-32.768 45.056h34.816v18.432c-3.072 20.48-8.192 38.912-12.288 52.224 2.048 1.024 4.096 3.072 7.168 5.12 9.216 8.192 17.408 14.336 25.6 18.432 8.192 3.072 20.48 5.12 35.84 5.12s32.768 1.024 52.224 1.024c20.48 0 48.128-1.024 81.92-2.048l-6.144 23.552z m275.456 5.12c-55.296-36.864-93.184-86.016-115.712-147.456-18.432 59.392-58.368 108.544-118.784 147.456l-16.384-24.576c77.824-47.104 117.76-111.616 119.808-193.536V377.856h27.648c0 25.6-1.024 46.08-2.048 64.512 16.384 75.776 58.368 134.144 122.88 175.104l-17.408 23.552z" fill="#4A4A4A" p-id="8958"></path></svg>