<?xml version="1.0" standalone="no"?><!DOCTYPE svg PUBLIC "-//W3C//DTD SVG 1.1//EN" "http://www.w3.org/Graphics/SVG/1.1/DTD/svg11.dtd"><svg t="1581412039542" class="icon" viewBox="0 0 1024 1024" version="1.1" xmlns="http://www.w3.org/2000/svg" p-id="34273" xmlns:xlink="http://www.w3.org/1999/xlink" width="128" height="128"><defs><style type="text/css"></style></defs><path d="M463.1564409 927.22463412c-7.2952622-1.60445697-20.90807204-3.0083569-30.25904752-3.10863723-33.14205303-0.37604325-102.13368575-28.57938119-155.46932717-63.58912217-34.43314064-22.60027394-98.07240484-86.2395381-120.66014328-120.67267884-37.39135913-56.9707407-60.95681222-117.73953132-65.58216158-169.14481446-3.45960947-38.36907377-3.45960947-127.44147901 0-165.82308467 4.63788125-51.39274775 28.20333792-112.17407378 65.58216158-169.1322791 22.58773843-34.44567617 86.2395381-98.08494034 120.66014328-120.67267875 57.108624-37.47910043 115.6086123-60.49302406 165.83562017-65.26878848 38.40667663-3.63509558 134.04732859-3.63509558 172.45400521 0 77.18940012 7.33286874 160.94704346 51.26740005 230.71583365 121.03618643 41.20194089 41.20194089 64.22840007 73.02783888 87.73117925 121.27435018 29.68244715 60.94427671 36.26322576 96.43034134 36.2632258 195.66848606 0 99.26321209-6.58077854 134.74927674-36.2632258 195.68101799-23.50277916 48.25904309-46.52923839 80.08494116-87.73117925 121.28688567-41.23954738 41.23954738-73.11558373 64.29107391-121.27435015 87.68104086-40.80082663 19.81754522-68.13926215 28.62951954-99.48883663 32.03899069-39.29665004 4.27437351-147.24648875 6.10445502-162.51389756 2.74512582z" fill="#ffffff" p-id="34274"></path><path d="M451.32357424 925.62017715c-95.089119-12.19637808-199.27851069-72.06265979-264.64757966-152.04732415-83.34399351-101.99580251-113.33981003-215.72419131-95.07658348-360.38850842 23.18940987-183.55985286 186.89411459-344.18099142 371.5570298-364.53753411 168.15456438-18.55152858 307.60439626 32.96656688 405.73947502 149.84119945 86.03898102 102.47212609 117.02504772 217.00274342 98.47351916 363.93585909-22.8259021 180.82726251-182.43171947 340.43307995-363.25898203 363.25898202-44.88717851 5.67827338-108.3008146 5.6406669-152.79941428-0.06267388z m139.28688121-159.10442643c5.16434319-2.66991646 12.497212-10.14066483 16.29526183-16.58356021 5.97910723-10.12813297 8.64902372-11.73259001 19.4791048-11.78272838 29.50695742-0.07520937 80.51112641-20.80779536 99.42616276-40.38718049 5.82868843-6.02924558 17.87464783-23.65319794 26.7618352-39.15876674 13.76322858-24.00417379 17.5863458-28.35375306 25.75904584-29.30640028 5.66573791-0.66434527 17.49860457-7.95960747 28.79247386-17.73676462l19.19080279-16.62116661V460.60355631l-21.55988178-20.39414555c-15.58077819-14.74094318-21.55988546-22.73815723-21.55988543-28.85514766 0-17.42339518-11.05570924-57.08355296-23.06406204-82.74232574-35.99999114-76.97630759-96.14204301-121.90108891-183.99857002-137.46933161-95.99162421-16.99720992-204.98185505 31.13648542-251.0222343 110.88298617-13.14902169 22.78829557-25.64623366 63.48884546-28.3286857 92.21864533l-2.21866389 23.91642892-24.31754316 22.71308983-24.31754316 22.71308619v127.679639l19.65459096 18.73955025 19.65459453 18.7520857h73.45402419v-202.31193495h-11.34401119c-24.1545926 0-25.69637206-4.53760449-16.60863121-49.06127159 16.79665286-82.29106951 78.31753354-138.92336983 168.90665085-155.45679534 57.03341458-10.40389949 132.56821938 8.4484666 175.83840541 43.89692839 32.7785453 26.86211193 63.76461198 79.32031916 72.99023606 123.53061326 6.4930337 31.14901727 3.79804981 37.10305716-16.79665287 37.10305712h-14.80361709v100.77992424c0 86.5529075 0.70194814 101.08076176 4.97632164 102.71028606 7.65877361 2.94568295 6.00417821 10.77994273-6.43035988 30.20890914-16.53342177 25.84679081-48.55988059 42.91921013-88.24510934 47.06823589-17.17269968 1.80501413-18.83983057 1.34122598-24.04177668-6.59331412-7.60863525-11.6072386-23.91642894-15.45543044-65.35653343-15.45542678-59.01391483 0-72.95263322 8.22283846-72.95263321 43.06962889 0 20.4317521 7.34540427 34.28272191 21.18383854 39.86071484 12.58495689 5.08913388 94.0737979 3.84818822 104.60304512-1.59192147z" fill="#FED2CE" p-id="34275"></path><path d="M455.74836645 925.36948165c-50.18940501-7.30779775-118.16571654-32.79108075-161.46097355-60.50555959-152.8119462-97.83424125-228.50970528-265.19911263-202.56263405-447.81885372 26.32311444-185.13923885 182.5319962-340.89686802 368.02221095-366.93168413 198.02502958-27.80222367 379.61691767 65.39413628 467.51105118 239.92892223 59.75346946 118.66710761 59.79107597 276.79381575 0.08774495 395.34811098-64.98049014 129.020865-189.77712009 220.65037451-327.09603662 240.16708585-41.65319353 5.92896891-103.1615387 5.84122395-144.50136286-0.17548978z m129.13367725-154.1406403c6.76880025-1.88022346 15.33007905-7.4582165 19.04038771-12.40946709 3.71030499-4.9637861 8.1476291-10.69219785 9.83983091-12.74790748 1.70473371-2.0431741 11.54456473-4.78829999 21.87325491-6.06685213 37.72979591-4.71309059 75.2590383-22.22423065 95.36488184-44.47352876 6.17966436-6.84400958 17.57381392-23.91642894 25.32032879-37.95542403 12.10863324-21.93592869 15.31754714-25.50835043 22.9637853-25.52088585 6.09191951 0 15.41782393-5.84122395 29.6197697-18.50139021l20.73258956-18.48885469v-133.6211434l-21.1587712-21.64762672c-20.95821409-21.45960505-21.18383855-21.87325478-26.22283768-50.22701144-9.56406448-53.81196871-29.75765294-92.30639025-70.50834119-134.37322988-22.41225229-23.12673595-31.28690054-29.68244715-55.44149307-41.01392289-43.75904513-20.50696144-73.24093153-27.26322619-120.18381964-27.56406004-31.72562124-0.20055712-45.12533844 1.25348112-66.05848527 7.16991445-102.69775059 29.0306338-165.13367206 100.61697003-176.30219349 202.1865908-2.26880221 20.64484106-2.63230997 21.27158348-26.72422866 44.88717852l-24.4303554 23.94149994v125.26041799l21.12116465 21.12116834 21.1211647 21.10862915 37.742335-0.94011173 37.75486696-0.94011173v-205.62112929l-14.91643297-1.6545954c-13.63788086-1.5167121-15.02924524-2.50696222-16.04456633-11.50696182-1.44150274-12.67269812 4.88857674-44.72422421 13.23676654-67.06126719 28.32868567-75.71029091 116.37323431-128.25624301 205.10720281-122.44008642 29.95821001 1.9679647 52.32032398 7.50835485 84.57240728 20.93314314 53.6490145 22.36211393 99.5515141 80.97491453 113.41501945 144.82727129 6.95682182 32.05152611 5.55292197 35.24790463-15.48049783 35.247901h-16.6713051v102.91084325c0 88.42059551 0.68941622 103.18660976 4.96378613 104.82866953 7.79665686 2.98328589 5.92896891 11.46935536-6.58077861 30.0584904-9.43871675 14.01392414-15.96935695 19.32868609-35.64901895 28.99303104-15.66851948 7.69637643-31.08634345 12.53481487-44.05987895 13.86350892-19.02785216 1.93036187-20.46935494 1.5417831-31.02367319-8.31058341l-11.06824109-10.34122553H484.82913864l-10.84261656 9.67688029c-10.27854807 9.17548573-10.83008108 10.86768758-10.83008118 32.81614819 0 25.62116627 4.71309059 34.22004806 23.21448082 42.39274814 12.10863324 5.35236484 80.59887126 6.17966436 98.52365751 1.20334275z" fill="#FEC1BD" p-id="34276"></path><path d="M484.71632641 928.66613688c-4.56267188-0.78969299-19.49164028-3.0960981-33.16712408-5.11420486-52.23257913-7.68384099-120.45958622-35.47352916-172.42893429-70.22004279-32.01391964-21.40946669-93.76042849-83.14343639-115.1573596-115.15735973-33.34261017-49.85096466-58.46238545-109.46655081-69.51809474-164.88297284-8.03481687-40.29943564-8.03481687-130.67546034 0-170.97489968 11.05570924-55.42895762 36.18801639-115.03201195 69.51809474-164.88297295 21.40946669-32.01391964 83.14343639-93.74789302 115.1573596-115.1573596 50.76600535-33.94428153 116.04732939-60.81892894 172.42893429-70.98466478 32.32729271-5.81615661 123.55568432-5.81615661 155.87044143 0 56.38160485 10.15320034 121.6629289 37.04038326 172.44146979 70.98466478 32.01391964 21.40946669 93.74789302 83.14343639 115.14482418 115.1573596 33.34261017 49.85096466 58.47491733 109.45401891 69.53062653 164.88297295 4.16155761 20.85793363 5.80362114 45.08773565 5.80362115 85.48745161 0 40.39971238-1.64205987 64.62951428-5.80362115 85.48744807-11.05570924 55.41642209-36.18801639 115.03201195-69.53062653 164.88297284-21.39693114 32.01391964-83.13090452 93.74789302-115.14482418 115.15735973-48.88578547 32.67826487-109.25346179 58.21168634-163.6796338 69.21725717-23.23954819 4.70055511-115.16989518 8.9749286-131.46515334 6.11699048z m108.11279288-159.3425864c6.20473535-2.94568295 11.2813337-6.45543087 11.28133376-7.79665687 0-1.35376151 3.66016665-6.40529248 8.13509717-11.23119536 5.90389783-6.39275698 11.40668147-8.7743715 20.14345012-8.77437145 17.66155516 0 59.54037679-15.07938353 80.47351992-28.98049542 17.62395231-11.69498347 25.99720955-22.34957844 51.19219057-65.11836984 7.39554265-12.58495689 10.74233618-15.35515005 18.53899305-15.3551501 7.34540427 0 14.12673998-4.81337104 29.93314272-21.27158699l20.43175206-21.25904799v-123.93173114l-21.91086132-22.68801521c-21.50974342-22.27436907-21.9860671-23.16434247-26.49860057-49.18661933-9.78969258-56.40667584-28.27854727-92.26878379-70.69636641-137.10582392-23.27715469-24.60584521-32.33982819-31.63787641-54.72700946-42.4303546-45.36350209-21.86071926-73.00277152-28.10305757-124.65874663-28.15319587-37.7548669-0.03760289-48.68522838 1.17827177-69.65597795 7.73397924-100.0027667 31.23676217-163.29105505 104.35234595-171.20052053 197.78686964l-1.98050386 23.27715466-24.50556484 23.27715476-24.51810027 23.2771546v131.36487668l20.73258595 19.57938153 20.73258592 19.5668497 38.95820965 0.0877449 38.98328064 0.08774125v-208.94285557h-10.98049983c-6.04178107 0-13.62534534-1.93036187-16.87186221-4.3119764-5.56545746-4.06128086-5.61559951-5.99164277-0.7896967-33.95681698 10.70473335-62.00973618 44.0473435-107.36070278 100.56683529-136.75484793 62.68661692-32.62812655 134.66153183-32.87882201 205.55845546-0.72701917 15.66851948 7.10724061 28.11559303 16.4080741 45.33843105 33.90667868 35.72422831 36.27575764 56.80778651 77.08911975 61.04455349 118.12811001 2.105848 20.36907821-0.551533 23.59052412-19.5292432 23.66573343-7.92200462 0.03760289-12.78551401 1.86768796-14.10166897 5.30222657-1.10306235 2.88300915-2.00557124 48.34678801-2.00557121 101.03062326 0 92.7075009 0.21309263 95.97908875 6.89415158 102.19635598 6.45543087 6.01671012 6.5682431 7.04456676 1.76740758 16.30779735-14.45264481 27.95264241-43.53341703 46.96795553-82.91781189 54.22561479-21.71030058 4.01114243-22.13648578 3.93593307-31.08634337-4.60027468-14.00138864-13.34957886-24.44289092-15.71866145-69.31753392-15.71866149-60.21725761 0-74.08076658 8.68662659-74.08076657 46.42896166 0 20.1183791 6.655988 34.48327902 19.10306158 41.23954372 13.51253305 7.33286874 96.69357599 7.20752097 112.22421215-0.16295063z" fill="#FEB2AE" p-id="34277"></path><path d="M484.71632641 928.45304432c-134.54871969-17.32311481-251.71165054-88.75903586-323.19770636-197.022244-30.96099567-46.91781712-51.60584035-96.66850496-65.29385956-157.39968899-10.65459497-47.31893134-10.65459497-125.13507391 0-172.45400536 31.68801475-140.64063909 113.51529613-247.08630118 237.73532929-309.27152709 32.91642851-16.4832835 66.50973779-28.10305757 109.3035966-37.80500891 47.38160525-10.74233618 125.07240005-10.74233618 172.45400521 0 42.78132691 9.70194774 76.38717164 21.30918626 109.30360028 37.80500891 124.2200295 62.18522592 206.03477904 168.63088441 237.7227938 309.27152709 10.65459497 47.31893134 10.65459497 125.13507391 0 172.45400536-40.65041155 180.45121924-166.42475966 306.65174898-345.37179869 346.56260222-30.84818345 6.89414798-105.79385229 11.33147577-132.65596057 7.85933077z m100.17825282-153.90247673c7.43314549-2.06824511 16.23258799-8.1977711 22.27436911-15.54317173 9.01253148-10.91782595 12.81058132-12.67269812 38.88300018-17.94985717 54.90249563-11.11838311 82.76739316-30.71030014 110.61975524-77.82867444 13.08634784-22.13648578 17.00974543-26.33564996 26.32311437-28.24094082 7.08216956-1.45403824 17.81197396-9.05013798 30.44706921-21.54734991l19.50417583-19.30361869V461.4559232l-21.30919-21.6476267c-21.25904794-21.57242092-21.34679281-21.72283604-26.13509279-49.9888515-9.17548573-54.05012875-29.92060717-93.2841049-72.16293656-136.4790815-24.02924479-24.56823869-32.84121913-31.12394991-57.09608842-42.49302487-43.80918355-20.5194933-73.20332869-27.25069066-120.12114576-27.4763188-71.62394267-0.33844036-128.54454139 22.37464577-180.15038178 71.88717374-35.84957601 34.39553778-56.72004525 77.44009563-64.22840005 132.46793896l-3.69777317 27.12534292-24.36768151 25.32032884-24.38021707 25.32032876V590.08820945l22.63787681 22.65041231 22.65041228 22.65041598h36.38857353c23.87882609 0 37.7548669-1.37882891 40.36210955-3.98607152 4.51253348-4.48746242 5.82868843-200.24369345 1.40389989-207.20051891-1.3662934-2.13091894-8.4359311-4.38718571-15.70612597-4.96378611l-13.22423106-1.07799503 0.58913585-20.78272427c2.1685219-77.87881639 69.50555557-150.22977457 156.9484364-168.6559554 63.9651691-13.4749266 145.64203173 7.95960747 188.61138388 49.5125242 35.52367117 34.33286393 62.63647857 86.94148623 64.40388616 124.99719066l0.70195178 14.91642934-16.58356386 1.66713089-16.58356017 1.65459534-0.8774379 104.47769737c-0.80222852 94.71307209-0.37604325 104.84120511 4.7005551 108.55151005 4.57520735 3.35932913 4.91364768 5.56545746 1.8551525 12.25905196-11.97074999 26.28551158-50.01391888 50.36489109-85.31196192 54.01252224-16.64623772 1.71726926-18.8272951 1.09053049-29.80779125-8.5487434l-11.84540221-10.40389943h-105.99440951l-11.75765728 10.77994272c-8.73676858 8.00974947-12.24651646 14.36489997-13.62534534 24.66851902-3.92339756 29.19358805 5.23955261 47.90806718 27.26322619 55.75486245 15.66851948 5.57799302 80.197757 6.58077854 98.39830972 1.52924768z" fill="#FE908C" p-id="34278"></path><path d="M486.37092172 927.12435377c-119.18103401-14.44010935-231.4929911-76.66293819-301.37459348-166.9386862-48.94845935-63.23814996-69.49302364-109.96794545-92.04315559-209.36903714-5.86629498-25.8593263-5.86629498-100.1782529 0-126.02504725 22.51252903-99.21307373 43.11976726-146.15595815 91.74232169-208.98045839 73.20332869-94.60025987 186.21723382-155.18102876 313.67124839-168.14202891 67.95124057-6.91921902 157.39968907 11.75765732 230.11415857 48.04595047 108.62671947 54.22561486 195.34258117 161.41083157 225.16290802 278.31053147 15.29247623 59.97909756 16.89693321 70.78410769 16.8969332 113.77853077 0 42.99441947-1.60445697 53.79943318-16.8969332 113.77852724-25.47074751 99.86488343-92.2311809 193.19912669-179.96236011 251.57376723-85.27435536 56.73258071-195.48046446 85.11140476-287.29799195 73.9804862z m107.6866077-154.05289551c5.23955261-2.70751936 12.69776907-9.36350734 16.55849282-14.79108148 4.9011122-6.89414798 10.75487173-10.45403783 19.3286861-11.78272837 44.58634099-6.86908059 82.30360501-23.81615219 102.99858808-46.26600739 7.00696386-7.60863525 18.4763192-24.19219541 25.49581492-36.85235803 14.17687828-25.57102427 16.43314501-27.86489753 27.41364491-27.95264238 4.85097382-0.02507099 15.43035946-7.64623809 29.01810195-20.90807566l21.3969312-20.87046926V462.20801331l-23.21448081-23.94149994c-18.31336862-18.88996896-23.21448078-26.04734793-23.21448084-33.94428514 0-16.58356381-12.15877159-58.76321933-23.38996691-81.17547165-26.9373213-53.7492913-64.34121234-92.2813193-111.08354335-114.43033689-72.68940217-34.44567617-150.91919087-37.20333383-221.49020586-7.8217279-81.6517953 33.99442357-134.87462448 103.75067457-144.4762955 189.3760095l-2.77019317 24.71865742-23.66573346 22.85096945-23.66573344 22.85096941v133.04454304l20.63230557 20.82033076 20.63230919 20.80779535H365.32219966v-107.42337675c0-117.9275529 1.16573623-111.4595866-20.18105649-111.45959016-9.17548573 0-9.66434481-0.71448365-9.66434123-14.22701666 0-19.60445252 8.16016459-49.80082624 20.11837906-74.36906497 18.90250448-38.85792923 65.18104733-75.8983125 114.19217692-91.42895235 19.05291958-6.02924558 30.97353115-7.34540427 66.33425172-7.34540058 46.95542364 0.01253551 68.31474829 4.93871873 107.7743489 24.85654064 45.99024089 23.21448078 91.95541434 90.47630516 98.21028809 143.71166988l2.20612839 18.80222404h-13.48746208c-24.36768153 0-23.90389343-2.1685219-23.9038971 111.10861429 0 85.07379824 0.76462202 101.44426944 4.97632529 105.65596915 6.71866183 6.71866183 6.41782433 8.51114049-4.38718573 25.52088589-11.65738059 18.35097146-34.74651003 31.47492577-67.32450185 38.26879341l-23.80361667 4.96378972-8.62395274-8.22284208c-13.63788086-13.02367398-24.33007868-15.29247623-72.01252139-15.2924762-48.32171693 0-57.96099084 2.50696222-70.35792241 18.27576205-18.6768763 23.74094283-7.5710287 69.10444491 19.32868607 78.89413753 2.73259038 1.00278563 26.32311444 1.93036187 52.39553332 2.06824514 35.86211152 0.20055712 49.75068788-0.9401118 56.94566969-4.66295228z" fill="#FE817D" p-id="34279"></path><path d="M494.73164346 928.25248713c-17.11002582-0.91504076-23.28969021-2.29386962-19.90528647-4.43732412 3.66016665-2.31894058 2.25626672-3.12116908-5.51531909-3.15877559-5.72841172-0.02507099-27.95264241-4.47493056-49.34957362-9.87743388-45.21308332-11.41921697-105.68103647-39.34678838-143.66153144-66.33424803-68.3774222-48.58494798-125.2353507-122.26460029-156.23395286-202.42475082-8.74930043-22.625345-23.3774314-81.35095773-23.3774314-93.88577622 0-5.12674037-1.29108763-8.52367601-2.85793812-7.55849326-3.82311722 2.369079-6.58077854-46.06545028-4.55013997-80.07240927 0.87743789-15.00417418 2.92061201-26.48606868 4.51253352-25.50835042 1.59192148 0.99025015 2.88300915-2.39414993 2.89554457-7.52089034 0-12.40946708 14.59052802-71.19775739 23.12673596-93.22143097 29.8328623-76.95123648 81.92756173-146.7325622 145.59189333-194.97906988 40.9637809-31.04874051 105.11697162-61.98466885 154.16570766-74.35652938 21.62255934-5.45264524 43.99720512-9.94010771 49.73815237-9.96517871 6.84400958-0.03760289 8.93732574-1.00278563 6.07938397-2.82033528-2.60724263-1.65459534 7.35793611-3.50974784 24.86907625-4.63788122 35.72422831-2.28133772 89.54872887 0.70194814 83.35652898 4.62534572-2.89554101 1.84261698-0.86490233 2.79526422 6.04178112 2.83287078 25.62116627 0.12534774 89.3356362 20.00556683 132.19217611 41.26461473 92.41920252 45.82729025 155.6949553 109.65457611 201.18380525 202.93867727 19.26601218 39.50974262 39.25904353 104.61557695 39.25904347 127.84259333 0 5.38997139 1.27855209 8.99999962 2.83286709 8.04735237 4.01114243-2.48189488 6.99442832 47.65737177 4.75069715 80.02226723-1.04038853 15.00417418-3.17130751 26.47353321-4.73816161 25.50835404-1.5668505-0.9651791-2.84540259 2.64484551-2.84540263 8.02228135 0 23.23954819-19.99303133 88.34538611-39.25904347 127.8551288-45.62673311 93.54733582-108.48883619 156.97350741-201.18380525 202.93867731-42.86907175 21.24651245-106.57100983 41.13926705-132.19217611 41.26461475-7.94707195 0.03760289-9.23815957 0.81476397-5.45264524 3.25905234 3.54735438 2.30640513-0.25069553 3.24651683-13.261834 3.29665894-10.02785258 0.03760289-25.69637206 0.60167138-34.82171934 1.22841008-9.12534735 0.6267424-27.7520853 0.551533-41.38996618-0.18802165z m97.43313062-151.55846507c6.09191951-2.54456874 15.0167097-9.80222809 19.84261259-16.13230755 7.5710287-9.92757587 11.2813337-11.80779569 26.97492416-13.65041636 34.42060513-4.04874533 76.80082142-24.21726639 97.38299224-46.34121676 4.33704735-4.66295225 14.85375908-20.1183791 23.37743142-34.34539576 12.58495689-20.99581695 17.21030261-26.07241894 24.58077413-26.92478584 5.60306398-0.65180976 17.29804745-8.74930043 30.50974308-21.10863284l21.4345377-20.05570511v-140.37740809l-21.23398064-21.03342346c-19.70473297-19.5417787-21.38439565-22.36211393-23.5403856-39.58495205-9.71448319-77.71586221-65.11836978-157.16152903-132.17963704-189.48881809-44.82450464-21.59748831-73.20332869-28.07799018-123.19217648-28.07799014-51.58076939 0-79.80917463 6.80640676-124.88437846 30.0835614-69.31753393 35.79943403-112.23674771 96.78131727-122.87880349 174.55985327l-3.73537603 27.30082903-24.31754316 24.94428559-24.3175468 24.95681738V593.42247122l22.73815721 22.7381572 22.73815714 22.75069265 42.75625951-0.9275762 42.75625955-0.94011178v-218.88296692l-14.2771551-1.02785298c-8.48606946-0.6267424-15.00417418-2.94568295-16.0821692-5.74094719-3.43453845-8.94985757 8.72423312-56.36906937 20.68244755-80.59887131 34.84679042-70.68383091 128.0431504-114.19217691 211.98881529-98.97491008 73.20332869 13.27436944 122.05150766 48.53480961 152.44843843 110.05569027 11.9582145 24.20473095 23.44010528 67.56266181 19.05291955 71.88717006-1.30361941 1.27855209-9.07520532 2.78272873-17.29804742 3.35933282l-14.91642936 1.04038841-0.90250881 106.11975725c-0.6267424 73.76739351 0.22562811 108.27574357 2.8203352 113.16432391 9.50139058 17.94985718-29.23119087 49.16154836-71.88717367 57.92338432l-20.23119498 4.14902574-14.10166895-11.33147573-14.11420084-11.34400753h-52.04455742c-57.72283082 0-63.92756255 1.83008153-76.95124022 22.56267103-5.32729748 8.49860498-6.43035985 15.0167097-5.54038644 32.84121917 1.21587822 24.51810029 8.21030294 35.84957601 27.43871232 44.38578389 14.0389951 6.24233824 94.19914561 6.29247658 109.10304304 0.06267384z" fill="#FE6460" p-id="34280"></path></svg>