<?xml version="1.0" standalone="no"?><!DOCTYPE svg PUBLIC "-//W3C//DTD SVG 1.1//EN" "http://www.w3.org/Graphics/SVG/1.1/DTD/svg11.dtd"><svg t="1581489685812" class="icon" viewBox="0 0 1292 1024" version="1.1" xmlns="http://www.w3.org/2000/svg" p-id="6030" xmlns:xlink="http://www.w3.org/1999/xlink" width="161.5" height="128"><defs><style type="text/css"></style></defs><path d="M784.006214 646.362718l-28.940428 28.940428a25.590058 25.590058 0 1 0 36.187962 36.187961l28.940427-28.950369 28.950369 28.950369a25.590058 25.590058 0 1 0 36.187961-36.187961l-28.950369-28.940428 28.940427-28.950368a25.590058 25.590058 0 1 0-36.187961-36.187962L820.194175 610.184699l-28.950369-28.940427a25.590058 25.590058 0 1 0-36.187961 36.187961l28.950369 28.930485zM994.174757 517.040466C955.401942 462.828117 891.923883 427.495146 820.194175 427.495146 702.145864 427.495146 606.446602 523.194408 606.446602 641.242718c0 71.729709 35.332971 135.207767 89.54532 173.980583H397.669903a79.533981 79.533981 0 0 1-79.533981-79.533981V198.834951a79.533981 79.533981 0 0 1 79.533981-79.53398h39.76699v44.737864a74.563107 74.563107 0 1 0 149.126214 0V119.300971h139.184466v44.737864a74.563107 74.563107 0 1 0 149.126213 0V119.300971h39.766991a79.533981 79.533981 0 0 1 79.53398 79.53398v318.205515z m-873.849786-239.695534H106.973204a8.917748 8.917748 0 1 0 0 17.825553h13.361709v13.361709a8.917748 8.917748 0 0 0 17.835495 0V295.170485h13.361709a8.917748 8.917748 0 1 0 0-17.825553h-13.361709v-13.37165a8.917748 8.917748 0 1 0-17.835495 0v13.37165z m151.532116-231.742136h-31.197204a8.917748 8.917748 0 0 0 0 17.825554h31.197204v31.187262a8.917748 8.917748 0 1 0 17.825554 0V63.42835h31.197204a8.917748 8.917748 0 1 0 0-17.825554h-31.197204V14.39565a8.917748 8.917748 0 1 0-17.825554 0v31.197204z m854.294369 106.953321h-22.269514a8.917748 8.917748 0 1 0 0 17.825553h22.269514v22.279456a8.917748 8.917748 0 1 0 17.835495 0v-22.279456h22.279457a8.917748 8.917748 0 1 0 0-17.825553h-22.279457v-22.289399a8.917748 8.917748 0 0 0-17.825553 0v22.289399zM13.381592 924.930485H877.955728a13.37165 13.37165 0 0 1 0 26.743301H13.37165a13.37165 13.37165 0 1 1 0-26.743301z m935.896233 0h329.787651a13.37165 13.37165 0 0 1 0 26.743301H949.267883a13.37165 13.37165 0 1 1 0-26.743301z m-445.66866 71.302214h597.200777a13.37165 13.37165 0 1 1 0 26.743301h-597.200777a13.37165 13.37165 0 0 1 0-26.743301z m-303.054291 0h151.532116a13.37165 13.37165 0 1 1 0 26.743301H200.544932a13.37165 13.37165 0 1 1 0-26.743301z m231.742136 26.743301a13.37165 13.37165 0 1 1 0-26.743301 13.37165 13.37165 0 0 1 0 26.743301zM432.466019 328.07767a24.854369 24.854369 0 1 0 0 49.708738h447.378641a24.854369 24.854369 0 1 0 0-49.708738h-447.378641z m0 149.126213a24.854369 24.854369 0 1 0 0 49.708738h149.126214a24.854369 24.854369 0 1 0 0-49.708738h-149.126214z m0 149.126214a24.854369 24.854369 0 1 0 0 49.708738h99.417476a24.854369 24.854369 0 1 0 0-49.708738h-99.417476z m79.533981-586.563107A34.796117 34.796117 0 0 1 546.796117 74.563107v89.475728a34.796117 34.796117 0 1 1-69.592234 0v-89.475728A34.796117 34.796117 0 0 1 512 39.76699z m288.31068 0A34.796117 34.796117 0 0 1 835.106796 74.563107v89.475728a34.796117 34.796117 0 1 1-69.592233 0v-89.475728A34.796117 34.796117 0 0 1 800.31068 39.76699z m19.883495 427.495146a172.936699 172.936699 0 0 1 123.029126 50.951456A172.956583 172.956583 0 0 1 994.174757 641.242718a172.956583 172.956583 0 0 1-50.951456 123.029127A172.936699 172.936699 0 0 1 820.194175 815.223301a172.926757 172.926757 0 0 1-123.029126-50.951456A172.936699 172.936699 0 0 1 646.213592 641.242718a172.926757 172.926757 0 0 1 50.951457-123.029126A172.926757 172.926757 0 0 1 820.194175 467.262136z" fill="#8a8a8a" p-id="6031"></path></svg>