<?xml version="1.0" standalone="no"?><!DOCTYPE svg PUBLIC "-//W3C//DTD SVG 1.1//EN" "http://www.w3.org/Graphics/SVG/1.1/DTD/svg11.dtd"><svg t="1581430753875" class="icon" viewBox="0 0 1330 1024" version="1.1" xmlns="http://www.w3.org/2000/svg" p-id="6459" xmlns:xlink="http://www.w3.org/1999/xlink" width="166.25" height="128"><defs><style type="text/css"></style></defs><path d="M985.123137 332.684549c-32.060235-79.239529-225.460706-76.152471-431.269647 6.174118-204.774902 82.321569-345.429333 214.051137-313.374117 293.290666 32.065255 79.239529 225.465725 76.147451 431.274666-6.174117 204.774902-83.355608 345.429333-214.051137 313.369098-293.295687zM360.45302 626.999216c-16.549647 7.203137-36.196392-1.02902-42.405647-18.522353-7.238275-16.464314 1.034039-36.020706 18.622745-42.194824 17.578667-6.174118 36.191373 1.02902 42.400627 18.522353 6.204235 17.493333-1.034039 36.020706-18.622745 42.194824z m381.625725-295.353726c16.549647-7.203137 36.201412 1.034039 42.405647 18.522353 7.238275 16.469333-1.034039 36.020706-18.617725 42.194824-16.544627 7.208157-36.196392-1.02902-42.400628-18.522353-6.209255-16.464314 2.068078-34.986667 18.612706-42.189804z m-154.101961 43.223843c16.549647-7.203137 36.201412 1.02902 42.405647 18.522353 7.243294 16.464314-1.034039 36.020706-18.612706 42.194824-17.583686 6.174118-36.201412-1.02902-42.405647-18.522353-6.204235-17.493333 2.068078-34.986667 18.617726-42.194824z m-166.500392 115.260236c-7.243294-16.464314 1.02902-36.020706 18.612706-42.194824 17.578667-6.174118 36.196392 1.02902 42.400627 18.522353 7.238275 16.464314-1.034039 36.020706-18.612705 42.194824-16.549647 6.174118-36.201412-2.058039-42.405647-18.522353z m237.864157 108.052078c-108.589176 43.218824-207.87702 50.42698-221.319529 16.464314-14.481569-34.986667 62.052392-97.761882 170.646588-142.009726 108.589176-43.223843 207.87702-50.42698 221.319529-16.464313 14.481569 34.986667-62.052392 97.761882-170.646588 142.009725z m246.14651-189.349647c-16.549647 7.203137-36.196392-1.02902-42.405647-18.522353-7.238275-16.464314 1.039059-36.020706 18.622745-42.194823 17.578667-6.174118 36.191373 1.02902 42.400627 18.522352 6.204235 16.464314-2.068078 34.986667-18.617725 42.194824z" fill="#5397FF" p-id="6460"></path><path d="M384.240941 694.924549c-76.533961 0-132.382118-20.580392-148.931765-61.746196-34.128314-83.355608 105.492078-215.080157 317.510275-299.469804 100.316863-40.131765 200.633725-62.770196 282.342902-63.799216 83.767216-1.02902 138.581333 20.580392 155.13098 60.717177 34.133333 83.355608-105.492078 215.080157-317.505255 299.464784-107.560157 43.218824-209.950118 64.833255-288.547137 64.833255z m458.159686-414.72502h-6.204235c-80.670118 1.02902-179.952941 23.667451-279.240784 63.799216-202.706824 81.302588-342.327216 209.940078-311.30102 286.092549 31.026196 76.147451 221.324549 72.031373 424.031373-9.261176 202.706824-81.302588 342.327216-209.935059 311.301019-286.08753-14.481569-36.020706-64.12549-54.543059-138.591372-54.543059z m-345.429333 360.181961c-34.133333 0-56.882196-8.232157-64.12549-24.69647-15.510588-38.078745 61.023373-102.912 173.753725-148.193883 52.74102-21.609412 105.487059-34.986667 147.892706-38.073725 44.473725-3.087059 73.426824 5.145098 80.665098 24.69647 7.243294 18.522353-7.238275 45.276863-41.361568 73.065412-33.099294 26.75451-79.641098 53.514039-132.387138 75.123451-63.086431 25.73051-122.036706 38.078745-164.442352 38.078745z m275.099608-200.673882c-5.170196 0-11.374431 0-16.544627 1.029019-41.371608 3.087059-93.083608 16.464314-144.790589 37.044706-114.798431 46.310902-178.923922 107.028078-168.57851 134.811608 11.374431 27.788549 100.316863 26.75451 215.115295-19.551372 51.712-20.580392 98.253804-47.334902 130.309019-73.065412 29.997176-24.696471 43.439686-47.334902 38.26949-61.741177-5.170196-12.348235-23.787922-18.522353-53.780078-18.522353z m-422.992314 195.528784c-5.170196 0-10.340392-1.02902-14.481568-3.087059a40.272314 40.272314 0 0 1-20.680785-20.580392 35.001725 35.001725 0 0 1 0-28.812549 40.272314 40.272314 0 0 1 20.680785-20.585412c19.651765-8.232157 41.366588 2.058039 49.643921 20.580393 8.272314 18.522353-2.068078 41.160784-20.685804 49.392941-5.170196 2.058039-10.340392 3.092078-14.476549 3.092078z m0-65.862274c-3.107137 0-7.243294 1.02902-10.340392 2.058039-7.243294 3.087059-12.41349 8.232157-15.515608 14.406274-3.102118 7.203137-3.102118 14.406275 0 20.580393 3.102118 7.203137 8.272314 12.348235 14.476549 15.440313 7.238275 3.087059 14.481569 3.087059 20.680785 0 14.481569-6.174118 20.690824-21.614431 15.515607-36.020706-4.136157-9.261176-14.476549-16.464314-24.816941-16.464313z m102.384941-53.50902c-5.170196 0-10.340392-1.034039-14.476549-3.092078a40.272314 40.272314 0 0 1-20.685804-20.580393c-8.272314-19.551373 2.068078-41.160784 20.680785-49.392941 19.651765-8.237176 41.371608 2.058039 49.643921 20.580392a35.001725 35.001725 0 0 1 0 28.812549 40.272314 40.272314 0 0 1-20.680784 20.580393c-5.170196 2.058039-9.311373 3.087059-14.481569 3.087058z m0-65.867294c-3.102118 0-7.238275 1.02902-10.340392 2.058039-14.481569 6.174118-20.685804 21.614431-15.510588 36.020706 3.097098 7.203137 8.267294 12.348235 14.476549 15.435294 7.238275 3.087059 14.476549 3.087059 20.680784 0 14.481569-6.174118 20.685804-21.609412 15.515608-36.020706-3.102118-10.290196-13.447529-17.493333-24.821961-17.493333z m148.931765-7.203137c-5.170196 0-10.345412-1.02902-14.481569-3.087059a40.272314 40.272314 0 0 1-20.680784-20.580392c-8.282353-19.551373 2.063059-41.160784 20.680784-49.392941 19.646745-8.237176 41.366588 2.058039 49.643922 20.580392a35.001725 35.001725 0 0 1 0 28.812549 40.272314 40.272314 0 0 1-20.685804 20.580392c-5.170196 2.058039-9.311373 3.087059-14.481568 3.087059z m-10.345412-62.775216c-14.481569 6.174118-20.680784 21.614431-15.510588 36.020706 3.102118 7.203137 8.272314 12.348235 14.476549 15.435294 7.238275 3.087059 14.476549 3.087059 20.680784 0 7.243294-3.087059 12.41349-8.232157 15.515608-14.406275 3.102118-7.203137 3.102118-14.406275 0-20.580392-5.170196-15.440314-20.680784-22.638431-35.162353-16.464313z m303.028706 36.020706c-5.170196 0-10.340392-1.02902-14.481568-3.087059a40.272314 40.272314 0 0 1-20.680785-20.580392 35.001725 35.001725 0 0 1 0-28.817569 40.272314 40.272314 0 0 1 20.680785-20.580392c19.651765-8.232157 41.366588 2.058039 49.643921 20.580392a35.001725 35.001725 0 0 1 0 28.812549 40.272314 40.272314 0 0 1-20.685804 20.580392c-5.170196 2.058039-10.340392 3.092078-14.476549 3.092079z m0-64.833255c-3.107137 0-7.243294 1.02902-10.340392 2.058039-7.243294 3.087059-12.41349 8.232157-15.515608 14.406275-3.102118 7.203137-3.102118 14.406275 0 20.580392 6.204235 14.406275 21.714824 20.580392 36.191373 15.440314 7.243294-3.087059 12.41349-8.232157 15.515608-14.406275 3.107137-7.208157 3.107137-14.406275 0-20.580392-5.170196-11.324235-15.510588-17.498353-25.850981-17.498353z m-138.591372 48.368941c-15.510588 0-28.953098-9.266196-35.162353-23.67247-8.272314-19.551373 2.073098-41.160784 20.685804-49.392942 19.651765-8.232157 41.371608 2.058039 49.643921 20.580393 8.272314 19.551373-2.068078 41.160784-20.680784 49.392941-4.141176 2.058039-9.311373 3.092078-14.481569 3.092078z m-10.340392-62.775216c-14.476549 6.174118-20.680784 21.609412-15.510589 36.015687 6.204235 14.406275 21.719843 20.580392 36.196392 15.435294 14.481569-6.174118 20.680784-21.609412 15.510589-36.015686-5.170196-14.406275-21.714824-21.609412-36.191373-15.435295z m144.097882 202.330353l8.192-6.279529 228.492549 295.122824-8.202039 6.274509-228.48251-295.117804z m-446.34353 176.991373l10.330353-0.627451 19.235138 307.109647-10.330353 0.63749-19.240157-307.119686z m259.779765-41.532235l8.754196-5.496471 90.649098 142.642196-8.739137 5.50651-90.664157-142.657255z" fill="#5397FF" p-id="6461"></path><path d="M995.463529 328.568471c-17.583686-42.194824-74.460863-64.833255-160.301176-63.804236-22.753882 0-45.507765 2.058039-70.329726 6.174118-15.510588-32.928627-45.507765-57.630118-84.806274-72.036392l26.890039-62.775216c2.068078 0 4.136157 1.02902 6.204235 1.02902 4.136157 0 7.238275-1.02902 11.379451-2.05804 7.238275-3.087059 13.44251-8.232157 16.544628-15.435294a28.697098 28.697098 0 0 0 0-22.638431c-3.102118-7.208157-8.272314-13.382275-15.510588-16.464314a29.103686 29.103686 0 0 0-22.753883 0c-7.238275 3.082039-13.447529 8.232157-16.549647 15.430275a28.697098 28.697098 0 0 0 0 22.638431c2.068078 5.150118 6.209255 10.290196 11.379451 13.382275l-27.924078 62.775215c-2.068078-1.02902-4.136157-1.02902-7.243294-2.058039-49.643922-12.348235-107.555137-8.232157-161.335216 13.377255-53.780078 22.638431-99.287843 58.659137-126.177882 101.877961 0 0 0 1.02902-1.03404 1.029019l-66.188549-27.783529c1.034039-6.174118 1.034039-12.348235-1.034039-17.493333-3.102118-7.203137-8.272314-13.382275-15.510588-16.464314-14.481569-6.174118-32.065255 1.024-38.26949 15.435294-6.204235 14.406275 1.034039 31.899608 15.510588 38.073726 4.141176 2.058039 7.243294 2.058039 11.379451 2.058039 4.136157 0 7.238275-1.02902 11.379451-2.058039 5.170196-2.058039 10.340392-6.174118 13.44251-11.319216l65.15451 27.783529c-20.680784 39.102745-25.85098 79.239529-13.44251 115.260236-97.219765 72.036392-147.892706 147.159843-126.177883 202.731921 17.583686 43.218824 74.465882 63.799216 154.101961 63.799216 79.636078 0 183.055059-21.609412 290.615216-64.828235 214.086275-85.413647 354.735686-220.225255 320.607372-305.643922zM694.512941 114.517333c-2.068078-5.145098-2.068078-10.290196 0-14.406274 2.068078-5.150118 6.204235-8.232157 10.340392-10.290196 2.068078-1.034039 5.170196-1.034039 7.238275-1.034039 2.068078 0 5.170196 0 7.238274 1.029019 9.311373 4.116078 14.481569 15.435294 10.340393 24.696471-4.131137 9.266196-15.510588 14.406275-24.816942 10.290196-4.136157-2.058039-8.272314-6.174118-10.340392-10.290196zM297.361569 282.252549c-2.068078 5.145098-6.204235 8.232157-10.340393 10.290196-5.170196 2.058039-10.345412 2.058039-14.481568 0-5.170196-2.058039-8.272314-6.174118-10.340392-10.290196-2.073098-5.145098-2.073098-10.290196 0-14.406274 2.068078-5.145098 6.204235-8.232157 10.340392-10.290197 2.068078-1.02902 5.170196-1.02902 7.238274-1.029019 2.068078 0 5.170196 0 7.238275 1.029019 5.170196 2.058039 8.277333 6.174118 10.340392 10.290197 2.073098 4.116078 2.073098 9.261176 0 14.406274z m95.146666 37.044706c24.821961-40.131765 66.188549-73.065412 116.86651-93.645804 49.643922-20.580392 102.389961-24.696471 148.931765-13.377255 39.29851 10.290196 69.290667 31.899608 85.835294 60.717177-61.018353 10.290196-126.172863 28.812549-192.361412 55.567058-67.227608 26.75451-127.211922 58.659137-176.855843 92.621804-10.340392-31.904627-3.102118-67.920314 17.583686-101.88298z m275.104628 296.382745c-196.502588 79.239529-387.83498 84.379608-417.827138 12.348235-29.992157-73.065412 111.696314-200.673882 308.198902-279.913411 98.248784-39.102745 196.502588-61.746196 277.172706-62.775216h6.204236c72.392784 0 121.002667 18.522353 134.445176 51.45098 29.992157 72.041412-111.691294 199.644863-308.193882 278.889412z" fill="#5397FF" p-id="6462"></path><path d="M78.767686 108.237804L23.225725 83.46102l55.541961-24.771765 24.771765-55.541961 24.776784 55.541961 55.536941 24.771765-55.536941 24.776784-24.776784 55.536941z" fill="#5397FF" opacity=".577" p-id="6463"></path><path d="M1146.478431 82.321569m-48.188235 0a48.188235 48.188235 0 1 0 96.376471 0 48.188235 48.188235 0 1 0-96.376471 0Z" fill="#5397FF" opacity=".1" p-id="6464"></path><path d="M199.509333 950.282039l12.172549 12.16753a11.474824 11.474824 0 1 1-16.228392 16.228392l-12.167529-12.172549-12.172549 12.172549a11.474824 11.474824 0 0 1-16.223373-16.228392l12.16753-12.16753-12.16753-12.172549a11.474824 11.474824 0 0 1 16.223373-16.223372l12.172549 12.167529 12.167529-12.167529a11.474824 11.474824 0 0 1 16.228392 16.223372l-12.172549 12.172549z" fill="#5397FF" opacity=".2" p-id="6465"></path><path d="M1111.245804 504.877176l27.77349-12.383372-27.77349-12.388392-12.383373-27.768471-12.388392 27.768471-27.76847 12.388392 27.76847 12.383372 12.388392 27.773491z" fill="#5397FF" opacity=".47" p-id="6466"></path><path d="M1290.390588 828.586667l40.006275-16.213334-40.006275-16.223372-16.213333-40.001255-16.223373 40.001255-40.001255 16.218353 40.001255 16.223372 16.218353 39.996236z" fill="#5397FF" p-id="6467"></path><path d="M45.301961 860.486275l22.216784-9.908706-22.216784-9.908706-9.908706-22.216785-9.908706 22.216785-22.216784 9.908706 22.216784 9.908706 9.908706 22.216784z" fill="#5397FF" opacity=".2" p-id="6468"></path></svg>