<?xml version="1.0" standalone="no"?><!DOCTYPE svg PUBLIC "-//W3C//DTD SVG 1.1//EN" "http://www.w3.org/Graphics/SVG/1.1/DTD/svg11.dtd"><svg t="1581501105727" class="icon" viewBox="0 0 1024 1024" version="1.1" xmlns="http://www.w3.org/2000/svg" p-id="13811" xmlns:xlink="http://www.w3.org/1999/xlink" width="128" height="128"><defs><style type="text/css"></style></defs><path d="M259 137.3h495.8l202.3 252.8-433.7 418.5L68.8 390.1z" fill="#2FBBFB" p-id="13812"></path><path d="M259 137.3h495.8v298.3L515 160.2 259 435.6z" fill="#64CFFF" p-id="13813"></path><path d="M69 390.6L259.1 434l264.3 374.7L755.5 434l203.8-45.3-435.9 420z" fill="#00A0E8" p-id="13814"></path><path d="M514.1 159.9l240.7 275.7H259z" fill="#029CE1" p-id="13815"></path><path d="M259 435.6h495.8L523.1 809z" fill="#0195D8" p-id="13816"></path><path d="M660 363.9h-17.6c-0.4-0.2-0.8-0.4-1.2-0.4h-73.6c-1.6 0-3.1 1.4-3.7 2.9l-59.3 137.9-59.8-140.8H382.7c-1.4 0-2.6 1.1-3.4 2.2-0.8 1.2-0.9 2.7-0.4 4l87.2 207.2 4.4 11c1.5 4.1 7.1 4.5 9.7 4.5h63.5l15.1-2.2c0.4 0 0.7-0.1 1-0.3 0.5-0.2 0.8-0.5 1-1l73.8-180.6 24.3-14.8c0.6-0.4 1-1.7 1-2.4v-27.2z" fill="#00415F" p-id="13817"></path><path d="M645.9 354.7h-17.6c-0.4-0.2-0.8-0.4-1.2-0.4h-73.6c-1.6 0-3.1 1.4-3.7 2.9l-59.3 137.9-59.8-140.8H368.6c-1.4 0-2.6 1.1-3.4 2.2-0.8 1.2-0.9 2.7-0.4 4L452 567.7l4.4 11c1.5 4.1 7.1 4.5 9.7 4.5h63.5l15.1-2.2c0.4 0 0.7-0.1 1-0.3 0.5-0.2 0.8-0.5 1-1l74-180.7 24.3-14.8c0.6-0.4 1-1.7 1-2.4v-27.1z" fill="#FFFFFF" p-id="13818"></path></svg>