<?xml version="1.0" standalone="no"?><!DOCTYPE svg PUBLIC "-//W3C//DTD SVG 1.1//EN" "http://www.w3.org/Graphics/SVG/1.1/DTD/svg11.dtd"><svg t="1581517928112" class="icon" viewBox="0 0 1024 1024" version="1.1" xmlns="http://www.w3.org/2000/svg" p-id="2062" data-spm-anchor-id="a313x.7781069.0.i2" xmlns:xlink="http://www.w3.org/1999/xlink" width="128" height="128"><defs><style type="text/css"></style></defs><path d="M500.591159 777.529539c-98.952686 17.575284-247.458975 51.756781-388.592342 114.440425L879.259478 891.969964c0 0-11.210319-141.182486-244.344031-132.054595 15.470343-120.070656 45.737694-219.895199 81.485873-301.43019-1.173732-20.827351-1.50733-42.964534 1.036609-66.800405-10.651594 6.019087-21.74935 12.011568-32.976042 18.031679-44.207851 92.762707-82.313727 210.109322-99.707886 354.832448-9.901511 1.277086-21.934568 2.927679-35.804461 5.027503-17.050328-129.773645-48.555879-229.966579-79.397305-302.352189-18.244526-5.860475-36.960797-12.596899-55.189973-21.868053-0.762363 4.100388-1.786693 8.256034-2.691295 12.411681C444.695105 527.592117 481.891262 632.975259 500.591159 777.529539L500.591159 777.529539zM579.934229 469.591121c17.049305 10.92584 31.928177 25.146727 43.008536 45.681412-1.278109-23.918759-7.073092-44.723597-15.887852-62.939471C597.152379 458.193537 587.899644 464.052988 579.934229 469.591121L579.934229 469.591121zM714.241121 659.267065c142.706189-63.657832 155.748227-251.418146 122.235972-353.537965 55.243185 129.71941 148.31493 197.478653 151.751193 281.382599 17.235546-141.329842-45.469588-265.297248-139.856281-316.435952 49.476855 14.890128 100.992135 41.763173 132.663462 81.268932 0.400113-59.268872-67.683519-143.862525-142.295843-108.120486 39.290865-51.619658 5.542226-164.130128-72.928986-166.711929 49.997718 28.2893 24.862247 108.037599 31.018457 160.134117-21.167089-82.248236-125.037784-165.648714-230.984768-146.230456 43.445488 76.766384 155.096381 84.117816 217.969337 148.232043-108.967784-74.42506-255.873622-66.164932-320.03185 2.12643 93.125981-39.311331 128.140449 56.976666 308.645522 21.792329-105.84363 23.732517-227.931223 58.889225-250.693646 211.994252 28.689413-57.135278 217.253022-117.91455 264.147052-181.042309C703.266162 455.100082 816.537971 556.986587 714.241121 659.267065L714.241121 659.267065zM395.503752 307.379693c41.521672-49.646724 33.348526-99.748818 84.841294-115.250884-64.558341-16.59598-153.99428 53.483098-129.779785 122.788557-75.395154-65.681932-152.123676-12.253068-170.45109 55.912427 29.192879-40.11872 96.776114-29.785374 144.882761-31.512714-97.095385 12.489452-185.664583 72.212672-184.408987 180.111101 41.735543-52.206012 119.012557-53.16485 204.972325-160.802336-49.718355 79.56308-69.579705 239.460814-22.713304 342.776877-20.442588-94.659917 75.505671-240.145405 56.006572-330.765309 30.870078 36.681434 72.024383 51.274804 112.700805 63.87682 6.766101-25.676799 16.287965-48.001247 27.860535-67.468624-40.552601-21.7647-82.693374-32.230052-105.32379-37.743626 59.323107 6.019087 109.160165-8.069793 148.637272-15.587 8.656147-7.931646 17.74106-15.124466 27.125801-21.653159-9.599635-3.010567-18.655895-5.750981-26.889417-9.057283-40.530089-16.21531-71.546499-18.161638-92.215238-15.607466C441.235306 276.323373 414.558737 291.743574 395.503752 307.379693L395.503752 307.379693zM395.503752 307.379693" p-id="2063" data-spm-anchor-id="a313x.7781069.0.i3" class="selected" fill="#5397FF"></path></svg>